inDegrees=no
num_controls=7
num_derivatives=13
num_iterations=109
num_multipliers=7
num_parameters=0
num_slacks=7
num_states=26
objective=0.523894
objective_accelerations=0.028129
objective_balance=0.002066
objective_effort=0.034157
objective_height=0.446761
objective_ligament=0.012781
solver_duration=1424.020680
status=Solve_Succeeded
success=true
DataType=double
version=3
OpenSimVersion=4.5
endheader
time	/jointset/ground_pelvis/pelvis_tilt/value	/jointset/ground_pelvis/pelvis_tx/value	/jointset/ground_pelvis/pelvis_ty/value	/jointset/hip_l/hip_flexion_l/value	/jointset/hip_l/hip_adduction_l/value	/jointset/hip_l/hip_rotation_l/value	/jointset/back/lumbar_extension/value	/jointset/patellofemoral_l/patellar_flexion_l/value	/jointset/knee_l/knee_flexion_l/value	/jointset/knee_l/knee_adduction_l/value	/jointset/knee_l/knee_rotation_l/value	/jointset/ankle_l/ankle_angle_l/value	/jointset/subtalar_l/subtalar_angle_l/value	/jointset/ground_pelvis/pelvis_tilt/speed	/jointset/ground_pelvis/pelvis_tx/speed	/jointset/ground_pelvis/pelvis_ty/speed	/jointset/hip_l/hip_flexion_l/speed	/jointset/hip_l/hip_adduction_l/speed	/jointset/hip_l/hip_rotation_l/speed	/jointset/back/lumbar_extension/speed	/jointset/patellofemoral_l/patellar_flexion_l/speed	/jointset/knee_l/knee_flexion_l/speed	/jointset/knee_l/knee_adduction_l/speed	/jointset/knee_l/knee_rotation_l/speed	/jointset/ankle_l/ankle_angle_l/speed	/jointset/subtalar_l/subtalar_angle_l/speed	/forceset/tau_hip_flexion_l	/forceset/tau_hip_adduction_l	/forceset/tau_hip_rotation_l	/forceset/tau_knee_flexion_l	/forceset/tau_ankle_angle_l	/forceset/tau_subtalar_angle_l	/forceset/tau_lumbar_extension	lambda_cid13_p0	lambda_cid13_p1	lambda_cid13_p2	lambda_cid13_p3	lambda_cid13_p4	lambda_cid13_p5	lambda_cid14_p0	/jointset/ground_pelvis/pelvis_tilt/accel	/jointset/ground_pelvis/pelvis_tx/accel	/jointset/ground_pelvis/pelvis_ty/accel	/jointset/hip_l/hip_flexion_l/accel	/jointset/hip_l/hip_adduction_l/accel	/jointset/hip_l/hip_rotation_l/accel	/jointset/back/lumbar_extension/accel	/jointset/patellofemoral_l/patellar_flexion_l/accel	/jointset/knee_l/knee_flexion_l/accel	/jointset/knee_l/knee_adduction_l/accel	/jointset/knee_l/knee_rotation_l/accel	/jointset/ankle_l/ankle_angle_l/accel	/jointset/subtalar_l/subtalar_angle_l/accel	gamma_cid13_p0	gamma_cid13_p1	gamma_cid13_p2	gamma_cid13_p3	gamma_cid13_p4	gamma_cid13_p5	gamma_cid14_p0
0.5	-0.07115519133203423	-0.03492801401978914	0.8592034929277941	0.7119384318885689	-0.3171036843493992	-0.1707478779579537	-0.7580086142343465	0.6442921129833984	0.6442921129833525	-0.1190172811136121	-0.1745124294742531	0.04939014486565801	-0.006563619255771763	-0.0701933740858872	-0.1813177929724561	-0.2066807057565719	1.005735473485681	-0.04018799901945156	0.3296576639714778	-0.8506977984905975	1.04980165971088	1.04980165971089	0.121544318495682	-0.0003340589922712238	0.1814905140912335	0.01472282709729691	-0.2449014714263147	0.03443585433786342	-0.002451684258754725	-0.1831265022590292	0.1019026012003783	0.04048735303086631	0.3074284653030668	-12.43292651414318	-17.32441569798981	4.498122807207718	-5.863434610379072	-707.2057484053678	-72.48317610040645	-19.77598693719357	0.2239021831346312	0.4989661884200632	-0.0190281723400771	-1.227204957462819	0.1473346137666156	-0.3770188273507734	1.433563316113225	-0.8278057257933203	-0.8278057257932842	-0.1276108976871769	-0.02258019583411621	0.1445817444123429	0.2085922359362093	-1.243900349115253e-10	-2.0982447093422e-07	-4.984444821423225e-08	-4.174191886344163e-08	8.01612316437645e-10	-2.195872797621681e-08	-2.250185093295384e-08
0.51	-0.07184589789698871	-0.03671607233621735	0.857136156189173	0.7219329870465896	-0.3174985422028094	-0.1674698965212657	-0.7664427137776316	0.6547471394795272	0.6547471394792892	-0.1178093530342152	-0.1745166172631979	0.05121183918979919	-0.006406471476323707	-0.06792552197471213	-0.1762762770277757	-0.2067399454967104	0.9930095891170539	-0.03880651139667755	0.3260150785661657	-0.83602205632438	1.041040352016332	1.041040352016339	0.1199218507164339	-0.0004233281169431036	0.1828125502388459	0.01666996685883114	-0.2499769447294006	0.03490241772886656	-0.002505628601626046	-0.1848681551261706	0.1020570466654241	0.04094981966375251	0.3126641070138704	-12.52478586793181	-17.47451157515925	4.482451431158495	-5.991909246102257	-709.8946673973049	-72.46065436305904	-19.45830981258278	0.2315891076572912	0.5093754069354508	0.007632921030664434	-1.32017488147919	0.1301469648595588	-0.3464240054517312	1.499587742857811	-0.9247823101100834	-0.9247823101104403	-0.1975172694389381	0.009921223215451991	0.1206386280254369	0.1822959992239645	-3.515992109807177e-10	-1.966516553966761e-07	-4.493164153186264e-08	-4.061987824420255e-08	3.260663999563438e-09	-2.100170447681834e-08	-2.169685561906906e-08
0.52	-0.07251325346431294	-0.03845318927130957	0.8550696280123274	0.7317953044199355	-0.317880266954317	-0.1642260500603164	-0.7747270542840609	0.665109655094917	0.6651096550945383	-0.1166212401428645	-0.1745192934446246	0.0530456786910321	-0.006230948068667772	-0.06552317456161724	-0.1711295167052553	-0.2065189934015132	0.9792879165517845	-0.03756137864082999	0.3228306688276373	-0.8207459911189138	1.031299483568801	1.031299483568806	0.1175812808813686	-3.173748164453793e-05	0.1839195495100431	0.01839795273883861	-0.2550524180325713	0.03536898111983131	-0.002559572944134724	-0.1866098079933604	0.1022114921304502	0.04141228629657479	0.3178997487246141	-12.62103799819473	-17.62424290515742	4.467183846567479	-6.136940448343776	-712.6682319610422	-72.45066597826401	-19.13512542905935	0.2508012435183889	0.5200150639880814	0.03701019472703552	-1.426362596791179	0.1200636403813306	-0.2853836939939797	1.553627923962672	-1.023717876389876	-1.023717876389878	-0.2712313088506125	0.07359175615999772	0.1015743691293243	0.1647614596308726	-1.11850960911527e-09	-2.109777662225728e-07	-4.217090703031857e-08	-4.304966287237584e-08	6.562686540493231e-09	-2.306397297762694e-08	-2.405985564533216e-08
0.53	-0.07315594906194334	-0.04013837589122268	0.8530066952676835	0.7415157903982861	-0.3182498675205365	-0.1610138939312446	-0.7828555252161401	0.6753702912780346	0.6753702912778144	-0.1154582550033541	-0.1745172721721549	0.05488969891645543	-0.006038770873264646	-0.06299607679725112	-0.1658963161454019	-0.2060222844626475	0.964676807764144	-0.03634478280101137	0.3194637499485841	-0.804837823113186	1.020703583283688	1.020703583283688	0.1150905661538967	0.0003626432468640658	0.1848668772028411	0.02004934909814858	-0.260301030312898	0.03615568102055128	-0.002640135064472077	-0.1878500303335372	0.1016615063925625	0.04180691296074866	0.3232167507502974	-12.94302095081568	-17.7084937188104	4.445481831026985	-6.090392908762198	-715.3775828954913	-72.29886490111977	-18.8073914247151	0.2566440606774899	0.5266873566394713	0.06279356254730675	-1.498354915497256	0.1245852445992005	-0.3828854732091082	1.625967066103898	-1.096146509449428	-1.096146509450173	-0.2268090947344832	0.01135646228704748	0.08866254774996191	0.1671474998776221	3.843964019390917e-09	-2.066437702214631e-07	-6.521022738715796e-08	-4.596406448190169e-08	1.413344229844554e-08	-1.819916321933766e-08	-2.066132561579415e-08
0.54	-0.07377277767835881	-0.04177088754460571	0.8509500880762449	0.7510861913096117	-0.3186068765905716	-0.1578395148886651	-0.7908216033027184	0.685521244377293	0.6855212443772954	-0.1143179405191072	-0.1745135080462195	0.05674266253448423	-0.005829715959108468	-0.06034977832163374	-0.1605945233992404	-0.2052538827604331	0.9492709031466469	-0.0350430794085137	0.3152752515356046	-0.7882674220184362	1.009362866803478	1.009362866803473	0.1130471498248631	0.0003168332190052201	0.1857082280314329	0.02177349648931654	-0.2655496425933001	0.03694238092122893	-0.002720697184403389	-0.1890902526737523	0.1011115206546603	0.04220153962486136	0.3285337527759266	-13.26941539519787	-17.7924514848788	4.424280849093663	-6.061145625447494	-718.172052644657	-72.16098342048214	-18.47617509153637	0.2746413857684314	0.5337335012497444	0.09134874739676523	-1.585321762762427	0.1370851509171446	-0.4496996007791882	1.686074541766786	-1.172681115409341	-1.172681115409294	-0.1817716291629635	-0.01444639511346968	0.08037899628811676	0.1793116660024785	1.514533061354225e-08	-1.81664549645793e-07	-1.167942892894432e-07	-4.941463807079632e-08	2.64270518284228e-08	-5.670351982897429e-09	-1.08883368011144e-08
0.55	-0.07436271032416764	-0.04335013478308281	0.8489025305256224	0.7604987253973337	-0.3189504096694153	-0.1547104772960082	-0.7986191636102959	0.6955548096271803	0.6955548096270603	-0.1131960926720457	-0.1745117048680986	0.05860329054127082	-0.005603102272790139	-0.05763121625892449	-0.1552522651303888	-0.2042109100213989	0.933110466738612	-0.03365882688495281	0.3104717384090643	-0.7711856409884266	0.9971947085498525	0.9971947085498493	0.111334573709595	3.631492575156769e-05	0.1863729799818239	0.02354109782944103	-0.2697764048170443	0.03726655388365283	-0.002849442515753592	-0.1911986249090511	0.1014732443980968	0.04247601695934613	0.3329522823198359	-13.29326105909778	-17.87079842163794	4.39487027690105	-6.082319003253744	-720.64270995961	-72.10386644866612	-18.14253718754302	0.271295414529056	0.5348606051920606	0.1177857650451277	-1.650218531006313	0.1398440805304174	-0.5047560778423938	1.728079659582047	-1.262203262449942	-1.262203262449596	-0.1642141132334742	-0.03600133287188158	0.05285903637512451	0.1743063955854984	1.968997614727896e-08	-1.561958714707754e-07	-1.34565692486269e-07	-4.831630111439993e-08	3.043746293909869e-08	2.256477672320371e-10	-5.278025171971375e-09
0.5600000000000001	-0.07492529098973301	-0.04487588171577322	0.8468668055479684	0.7697458923307451	-0.3192799504675048	-0.151631290616486	-0.806244136152382	0.7054620292781162	0.7054620292778672	-0.1120910132882931	-0.1745129362301621	0.06046923321595495	-0.005359048167555956	-0.05487938227597081	-0.1498944622419007	-0.2028873681667187	0.9161974722832861	-0.03224462326322296	0.3053050689124974	-0.7537498689198751	0.984093747011798	0.9840937470117967	0.1096934571733497	-0.0002900748251294376	0.186771161610633	0.02526158027228587	-0.2740031670408178	0.03759072684609115	-0.002978187847358523	-0.1933069971443317	0.1018349681415461	0.04275049429385572	0.3373708118637092	-13.32200591238648	-17.94881802447477	4.366013418729534	-6.119336107130441	-723.2052791886664	-72.05466032544496	-17.80835893764375	0.2812957698171273	0.5368424251770275	0.1474625705259597	-1.735833372220591	0.1430753705509038	-0.5223308747844939	1.756872749474919	-1.359241772295064	-1.359241772295063	-0.1674797133584239	-0.02362068663892103	0.02706493197173795	0.1698878865465469	1.612655640851838e-08	-1.301398441765409e-07	-1.117619052365448e-07	-4.175927150365445e-08	2.450803594661326e-08	-1.837726266211159e-09	-4.662926165472249e-09
0.5700000000000001	-0.07545998247833681	-0.04634794413142422	0.8448457005660596	0.7788199721531048	-0.3195956783612843	-0.1486035582911301	-0.813692938862997	0.7152337770638433	0.7152337770639218	-0.1110038870470209	-0.1745164851347611	0.06233790529025394	-0.005098540600987113	-0.052032128233801	-0.1445124040908655	-0.2012889284279304	0.8984745582221421	-0.03094232777626803	0.300371007776794	-0.7359476590168648	0.9701241048942688	0.9701241048942673	0.1075586316362498	-0.0003256559762657888	0.1869283571415954	0.0267825200603858	-0.2784183772281324	0.03800138077500498	-0.00307758010104104	-0.1949924531534816	0.1017258387537035	0.04302135967905289	0.3419183434214004	-13.49204679811189	-18.00340061569036	4.336700279723342	-6.097574657839112	-725.6422195872377	-71.92313221436848	-17.47637897863654	0.2904588566086894	0.5397224195657518	0.1727438743789765	-1.812108847669264	0.1176293111505572	-0.4595019369109404	1.801347238335887	-1.43558035387859	-1.435580353878567	-0.2624825453066019	0.02056431955592108	0.004808755633203355	0.1346148620294309	1.59377466251215e-08	-1.23483318448508e-07	-1.062989113344903e-07	-4.09724290449512e-08	2.58636589828366e-08	-3.023815343558397e-09	-4.402020440036615e-09
0.58	-0.07596539769946244	-0.0477660189836646	0.8428419218213037	0.7877125051499367	-0.3198996187654812	-0.1456212782179668	-0.8209618290490601	0.7248618774438864	0.7248618774443529	-0.109943308775396	-0.1745175716211199	0.06420710169825705	-0.004824540069118465	-0.04902412878397328	-0.1390969495597768	-0.1994221207361083	0.8798881071766915	-0.02988712535401493	0.2962146184831839	-0.7177673640089988	0.9553642658808689	0.9553642658808671	0.1043838632423207	0.000202408828875647	0.1868760283515422	0.02796017333198958	-0.2828335874155227	0.0384120347038809	-0.003176972354358364	-0.1966779091626672	0.1016167093658497	0.0432922250642024	0.3464658749790361	-13.66656669268085	-18.05775061765326	4.307979804702779	-6.095046931795998	-728.1661437046057	-71.80030275462261	-17.14673474730031	0.3134448513485511	0.5435217011877159	0.2011361611327351	-1.908540769081815	0.09365675761052504	-0.3667965063658561	1.832489770445785	-1.517281151469155	-1.517281151469164	-0.3754682847242931	0.08910850461663045	-0.0148399322314168	0.1012305832473003	2.014377771382601e-08	-1.420912598764575e-07	-1.234192762107953e-07	-4.770024892379098e-08	3.670678903319185e-08	-3.067393780408611e-09	-4.602389685288299e-09
